<svg xmlns="http://www.w3.org/2000/svg" class="abtech-logo" width="189" height="98" viewBox="0 0 189 98" role="img" aria-labeledby="logo-title logo-description">
  <title id="logo-title">A-B Tech logo</title>
  <desc id="logo-description">White A-B Tech logo on a burgundy background</desc>
  <path fill="#880029" d="M0,0H189V98H0Z"/>
  <path fill="#fff" d="M78.23 52.74c3.2 0 6.23-1.29 8.54-3.62 2.69-2.7 4.21-6.54 4.19-10.53-.04-6.1-3.04-10.57-8.68-12.93l-.41-.17.4-.22c4.49-2.44 6.75-6.12 6.92-11.22.12-3.96-1.3-7.87-3.8-10.46a9.7 9.7 0 0 0-7.1-3.1h-24.6v50.9H42.8V.5h-1.23L.93 52.74h1.92l12.51-15.82H41.4v15.82h13.85V1.84h22.5a9 9 0 0 1 6.76 3.01 12.6 12.6 0 0 1 3.23 9.27c-.38 6.19-4.88 10.86-10.47 10.86H64.65v1.34h12.72c6.66 0 12.02 5.34 12.2 12.16a12.8 12.8 0 0 1-3.61 9.2 12.3 12.3 0 0 1-8.85 3.77H64.65v1.3zM64.5 10.94l.02 6.85c.01 4.8 0 6.28-.01 6.75h12.77c5.36 0 9.67-4.49 10.04-10.45q.07-1.2-.1-2.38l-.13-.13-.23-.15a5 5 0 0 0-1.9-.48h-.08zm0 15.81v24.27h12.62c3.22 0 6.25-1.3 8.54-3.65.25-.26 3.59-3.8 3.48-8.88a12 12 0 0 0-.1-1.28 3 3 0 0 0-1.95-1.4c-.36-.1-.92-.22-1.6-.2H73.44l-8.84-8.86zm28.1 7.03 3.55 3.57c3.24 3.26 4.24 5.83 4.28 11 .03 3.87-1.45 7.6-4.07 10.24a11.8 11.8 0 0 1-8.38 3.55h-.01l-14.56-.01-.02-.02-8.86-8.81h-.03v8.84H49.92l-.02-.01L41 53.17h-.02v-6.92l-16.8-.03-12.84 15.92H8.97l-.01-.01-8.96-9 .03-.04L41.29.05h1.92l10.06 10.36V0h25.3c2.56 0 4.63.98 6.45 2.45 2.23 1.8 9.67 9.58 9.67 9.58 2.68 2.67 3.87 7.02 3.86 10.14v.97a13.1 13.1 0 0 1-5.96 10.64m-51.63 1.36h-7.88l7.88-10.1zm.44.44V3.68l-24.82 31.9zm147.22-1.73a5 5 0 0 0-2.12-2.9 7 7 0 0 0-4.2-1.26 8 8 0 0 0-5.62 2.24v-8.48h-9.39v37.71h9.4V39.1q0-2.35.3-3.14.3-.8 1.16-.8.92 0 1.2.77.26.77.26 3.48v21.75H189V39.85q0-4.35-.38-6m-4.7 35.68H10.34v-.87H183.9zM12.8 86.6v-.18h3.65v.05c0 4.3-1.57 6.12-5.23 6.12-2.68 0-4.39-.9-5.22-2.78-.75-1.67-.75-3.84-.75-6.15 0-4.59 0-8.93 5.97-8.93q2.53 0 3.79 1.3c.92.97 1.33 2.42 1.25 4.47v.05h-3.62v-.05c0-2.25-.39-3.09-1.42-3.09-2 0-2.23 2-2.23 6.25s.22 6.25 2.23 6.25c1.49 0 1.54-1.8 1.57-3.13zm11.8-.7c0-2.58-.14-3.7-1.49-3.7s-1.49 1.12-1.49 3.7c0 3.79.36 4.4 1.5 4.4 1.13 0 1.48-.61 1.48-4.4m-6.43.19c0-3.11.38-6.15 4.94-6.15s4.95 3.04 4.95 6.15c0 3.4-.38 6.45-4.95 6.45-4.56 0-4.94-3.05-4.94-6.45m23.96-6.15a3.6 3.6 0 0 0-3.1 1.48 3 3 0 0 0-2.7-1.48c-1.3 0-2.18.43-2.81 1.4v-1.16h-3.46v12.13h3.46v-8.34c0-1.1.2-1.85 1.2-1.85s1.2.74 1.2 1.85v8.34h3.39v-8.34c0-1.1.2-1.85 1.2-1.85s1.21.74 1.21 1.85v8.34h3.45v-9.7c0-1.83-1.57-2.67-3.04-2.67m14.04 1.48a3.6 3.6 0 0 1 3.1-1.48c1.47 0 3.05.84 3.05 2.68v9.69h-3.46v-8.34c0-1.1-.2-1.85-1.2-1.85s-1.2.74-1.2 1.85v8.34h-3.4v-8.34c0-1.1-.2-1.85-1.2-1.85s-1.2.74-1.2 1.85v8.34H47.2V80.18h3.46v1.16c.63-.97 1.5-1.4 2.82-1.4 1.16 0 2.1.53 2.69 1.48m17.76 8.45v-9.69h-3.46v8.38c0 1.12-.2 1.8-1.2 1.8s-1.2-.68-1.2-1.8v-8.38h-3.46v9.7c0 1.83 1.57 2.66 3.04 2.66q.99 0 1.66-.33.65-.3 1.16-1.06v1.16h3.58v-.06q-.13-1.31-.12-2.38m7.16-9.59q.67-.34 1.66-.34c1.47 0 3.05.84 3.05 2.68v9.69h-3.46v-8.34c0-1.1-.2-1.85-1.2-1.85s-1.2.74-1.2 1.85v8.34h-3.46V80.18h3.45v1.16q.47-.73 1.16-1.06m7.54-2.51h3.46v-2.75h-3.46zM92.1 92.3h-3.46V80.18h3.46zm6.31-15.56-3.45 1.55v1.88H93.6v2.18h1.36v7.35c0 .45.16 2.72 3.33 2.72a16.91 16.91 0 0 0 1.61-.1l.06-.02h.11v-2.2l-.06.02q-.26.06-.58.05-.7 0-.9-.37c-.12-.24-.12-.6-.12-1.02v-6.43h1.74v-2.18H98.4zm5.46 3.48 1.68 8.3 1.79-8.35h3.34l-.02.07-4.64 16.6h-3.63l.02-.07 1.28-4.43-3.26-12.17h3.43zm21.05 6.24-.01.3c-.04 1.33-.09 3.14-1.58 3.14-2 0-2.22-2-2.22-6.25s.22-6.25 2.22-6.25c1.04 0 1.42.84 1.42 3.09v.05h3.62v-.05c.08-2.05-.33-3.5-1.24-4.46q-1.25-1.3-3.8-1.3c-5.96 0-5.96 4.33-5.96 8.92 0 2.3 0 4.48.74 6.15.84 1.87 2.55 2.78 5.22 2.78 3.67 0 5.23-1.83 5.23-6.12v-.05h-3.64zm11.8-.57c0-2.58-.14-3.7-1.5-3.7-1.34 0-1.48 1.12-1.48 3.7 0 3.79.35 4.4 1.49 4.4 1.13 0 1.49-.61 1.49-4.4m-6.44.19c0-3.11.39-6.15 4.95-6.15s4.94 3.04 4.94 6.15c0 3.4-.37 6.45-4.94 6.45s-4.95-3.05-4.95-6.45m12.44 6.22h3.46V75h-3.46zm10.06 0h-3.46V75h3.46zm7.52-10.19q.63 0 .97.35c.52.52.52 1.52.52 2.33v.05h-2.96c0-.51 0-1.2.2-1.76q.3-.97 1.27-.97m0-2.18c-4.56 0-4.95 3.04-4.95 6.15 0 3.4.38 6.45 4.95 6.45a5 5 0 0 0 3.57-1.18 4.3 4.3 0 0 0 1.3-3.15v-.06h-3.5v.06q0 2.08-1.37 2.08c-1.45 0-1.47-2.22-1.47-3.46h6.41v-.05c.07-2.17-.04-4.34-1.26-5.61-.8-.83-2-1.23-3.68-1.23m10.87 9.7q.32.32.83.32c1.13 0 1.33-1.16 1.33-3.75 0-2.54-.1-4.09-1.3-4.09-1.18 0-1.42.76-1.42 4.5v.28c-.01.86-.03 2.15.56 2.74m-.35-9.7c1.23 0 2.2.57 2.67 1.55v-1.3h3.3v12.59c0 .44 0 1.47-.58 2.4q-1.1 1.74-4.04 1.74c-2 0-4.68-.37-4.76-3.62v-.05h3.39v.05q0 .81.27 1.18.31.45 1.08.45c1.02 0 1.18-1.21 1.18-1.94V90.8a2.8 2.8 0 0 1-2.54 1.34q-1.6 0-2.46-.86c-1.11-1.12-1.11-3.15-1.1-4.94v-.35c0-2.55 0-6.05 3.59-6.05m11.75 4.9c0-.5 0-1.2.2-1.75q.3-.97 1.27-.97.63 0 .97.35c.52.52.52 1.53.52 2.33v.05zm1.47-4.9c-4.56 0-4.94 3.04-4.94 6.15 0 3.4.37 6.45 4.94 6.45a5 5 0 0 0 3.57-1.18 4.4 4.4 0 0 0 1.3-3.15v-.06h-3.5v.06q0 2.07-1.37 2.08c-1.44 0-1.47-2.22-1.47-3.46h6.41v-.05c.07-2.17-.03-4.34-1.26-5.61-.8-.83-2-1.23-3.68-1.23M154.9 61.72q-3.97 0-6.3-1.36a7.5 7.5 0 0 1-3.3-3.82q-.95-2.46-.95-6.98v-8.78q0-3.94.79-5.94.78-2 3.37-3.58a12 12 0 0 1 6.27-1.57q3.67 0 6.28 1.56a7.7 7.7 0 0 1 3.46 3.94q.86 2.38.86 6.73h-8.86v-3.56q0-1.87-.3-2.53t-1.12-.66q-.8 0-1.09.58a8 8 0 0 0-.28 2.6v14.59q0 1.65.42 2.48t1.24.83q.95 0 1.28-.87.34-.86.34-3.26v-3.68h8.37q-.02 3.7-.27 5.56a9 9 0 0 1-1.56 3.8 8.3 8.3 0 0 1-3.42 2.93q-2.12 1-5.23 1m-24.63-22.76q0-2.6.23-3.2t1.2-.6q.8 0 1.05.7.26.7.26 3.1v2.26h-2.74zm-9.4 1.96v9.01q0 3.45.5 5.26.48 1.8 1.75 3.3a8.4 8.4 0 0 0 3.54 2.37q2.28.86 5.26.86 3.06 0 5.1-.87a8 8 0 0 0 3.36-2.62 9 9 0 0 0 1.68-3.29q.36-1.54.36-4.4v-2.28h-8.9v4.07q0 2.31-.36 3.11t-1.43.8q-.86 0-1.16-.6t-.3-2.7v-6.69h12.15v-4.1q0-4.5-1.03-6.97a8.3 8.3 0 0 0-3.6-3.99q-2.59-1.5-6.52-1.5-3.23 0-5.72 1.25a7.5 7.5 0 0 0-3.58 3.59q-1.1 2.34-1.1 6.39m-3.52 20.24h-9.78V31h-5.79v-7.55h21.38V31h-5.8z"/>
</svg>
